HIERARCHY
ROOT pelvis
{
  OFFSET 0 100 0
  CHANNELS 6 Xposition Yposition Zposition Zrotation Xrotation Yrotation
  JOINT pelvis_right_femur
  {
    OFFSET -10.78128 -3.44521 -0.5502486
    CHANNELS 3 Zrotation Xrotation Yrotation
    JOINT right_femur_tibia
    {
      OFFSET -0.8047443 -44.0398 -0.1307829
      CHANNELS 3 Zrotation Xrotation Yrotation
      JOINT right_tibia_foot
      {
        OFFSET 3.006224 -47.83518 -5
        CHANNELS 3 Zrotation Xrotation Yrotation
        End Site
        {
          OFFSET 0 -5 15
        }
      }
    }
  }
  JOINT pelvis_left_femur
  {
    OFFSET 10.78128 -3.44521 -0.5502486
    CHANNELS 3 Zrotation Xrotation Yrotation
    JOINT left_femur_tibia
    {
      OFFSET 0.8047443 -44.0398 -0.1307829
      CHANNELS 3 Zrotation Xrotation Yrotation
      JOINT left_tibia_foot
      {
        OFFSET -4.370144 -48.10324 -4.275266
        CHANNELS 3 Zrotation Xrotation Yrotation
        End Site
        {
          OFFSET 0 -5 15
        }
      }
    }
  }
  JOINT pelvis_spine1
  {
    OFFSET 0 6.468898 -3.129235
    CHANNELS 3 Zrotation Xrotation Yrotation
    JOINT spine1
    {
      OFFSET 0 23.15396 4.99043
      CHANNELS 3 Zrotation Xrotation Yrotation
      JOINT spine2
      {
        OFFSET 0 20.79997 -5.064912
        CHANNELS 3 Zrotation Xrotation Yrotation
        JOINT neck
        {
          OFFSET 0 14.38658 9.616178
          CHANNELS 3 Zrotation Xrotation Yrotation
          End Site
          {
            OFFSET 0 20 0
          }
        }
      }
      JOINT right_manubrium
      {
        OFFSET -5.722621 16.35077 3.967754
        CHANNELS 3 Zrotation Xrotation Yrotation
        JOINT right_clavicle
        {
          OFFSET -13.16364 1.694482 -4.693211
          CHANNELS 3 Zrotation Xrotation Yrotation
          JOINT right_humerus
          {
            OFFSET -28.5034 -0.3100689 -2.792744
            CHANNELS 3 Zrotation Xrotation Yrotation
            JOINT right_radius
            {
              OFFSET -25.15693 0.02248979 -1.271978
              CHANNELS 3 Zrotation Xrotation Yrotation
              End Site
              {
                OFFSET -15 0 0
              }
            }
          }
        }
      }
      JOINT left_manubrium
      {
        OFFSET 5.722621 16.35077 3.967754
        CHANNELS 3 Zrotation Xrotation Yrotation
        JOINT left_clavicle
        {
          OFFSET 13.16364 1.694482 -4.693211
          CHANNELS 3 Zrotation Xrotation Yrotation
          JOINT left_humerus
          {
            OFFSET 29.39168 -1.063119 -2.237045
            CHANNELS 3 Zrotation Xrotation Yrotation
            JOINT left_radius
            {
              OFFSET 24.59957 -0.9528479 0.9047498
              CHANNELS 3 Zrotation Xrotation Yrotation
              End Site
              {
                OFFSET 15 -0 -0
              }
            }
          }
        }
      }
    }
  }
}
MOTION
Frames: 7
Frame Time: 0.0416666666667
0 103.5113 0 2.499627 -1.522336 -0.1588743 2.349287 -13.32461 10.34458 -0 39.2894 -0 -3.563062 -17.33122 -2.875576 -8.639883 8.60132 -22.89963 -0 6.157887 -0 17.39543 -10.61487 30.49162 -5.011062 -4.537145 6.01697 2.663602 11.39242 -7.399479 1.457659 22.04996 5.853583 2.285034 -24.40557 9.170089 7.087028 -21.2379 12.17587 85.4131 38.48444 -17.72907 -0 0 16.37796 -7.629667 9.157649 5.314046 4.775237 -18.71349 -2.550949 -90.88639 20.40006 19.94682 0 0 -16.09943 14.77668 12.92369 -2.906336
0.3366029 103.3908 1.338345 2.190947 -1.203061 -0.3688579 2.753652 -14.70114 10.18631 -0 38.59485 -0 -3.965456 -16.85587 -2.822717 -8.403441 8.730861 -22.69633 -0 5.880938 -0 16.73116 -11.75592 30.2082 -4.809578 -4.391645 5.910479 2.653754 11.16731 -7.47184 1.502453 21.95227 5.921718 2.384857 -24.60933 9.245156 6.87848 -21.10667 12.05556 85.46405 37.97353 -17.83991 -0 0 16.41778 -7.471931 8.949926 5.06405 5.154478 -19.05676 -2.224779 -91.08212 20.56482 19.90311 0 0 -16.04232 14.92135 13.42012 -3.058469
0.6607578 103.1608 2.912871 1.328615 -0.2379409 -0.4915949 3.845216 -18.49838 9.837664 -0 36.19502 -0 -4.805242 -15.23049 -2.782806 -7.700697 9.307825 -22.15409 -0 5.185179 -0 14.1941 -15.00239 28.99742 -4.205134 -3.917922 5.556954 2.684177 10.53072 -7.72246 1.552344 21.57978 6.262769 2.748549 -25.19177 9.446456 6.487185 -20.70912 11.76576 85.56673 36.79576 -18.36514 -0 0 16.47442 -7.28004 8.664363 4.635429 6.037993 -19.81755 -1.498597 -91.90878 21.70634 20.29132 0 0 -16.07495 13.97774 14.71092 -1.8486
0.9650941 102.7757 4.837233 0.7366546 0.6646443 -0.4876195 4.651403 -21.86425 9.097201 -0 32.84908 -0 -5.516891 -13.23218 -2.555986 -7.147989 9.959548 -21.31822 -0 4.957793 -0 12.0249 -17.50335 27.39869 -3.788549 -3.478012 5.208899 2.719649 10.03645 -7.921177 1.555061 21.16775 6.548926 3.127778 -25.50039 9.469692 6.20118 -20.19504 11.53705 85.70145 36.14943 -18.8514 -0 0 16.29347 -7.57333 8.721866 4.452085 6.833615 -20.49133 -1.055933 -92.11039 22.04591 19.99989 0 0 -16.51403 13.37536 15.36505 -1.335567
1.24813 102.2606 7.134518 0.2088943 1.490266 -0.3750304 5.340962 -24.80025 8.386059 -0 29.63401 -0 -6.127643 -11.27378 -2.322135 -6.642047 10.64347 -20.45646 -0 5.143738 -0 9.864827 -19.48475 25.62612 -3.39391 -3.088452 4.860098 2.773315 9.616659 -8.114871 1.530145 20.75934 6.820245 3.477685 -25.75223 9.451866 5.984571 -19.67445 11.34863 85.8493 35.66366 -19.35227 -0 0 16.01363 -7.967713 8.89092 4.376871 7.484637 -21.0516 -0.7280658 -92.18295 22.27341 19.65339 0 0 -17.00933 12.71397 15.7716 -0.7782455
1.508494 101.6388 9.841777 -0.2815777 2.254277 -0.1652044 5.951406 -27.41327 7.660721 -0 26.48226 -0 -6.695453 -9.309471 -2.067679 -6.165225 11.358 -19.5238 -0 5.798254 -0 7.69157 -21.00845 23.66292 -3.002802 -2.740198 4.504258 2.840336 9.259196 -8.309234 1.481268 20.34857 7.074202 3.803995 -25.95255 9.389484 5.807202 -19.13156 11.18968 86.02526 35.27621 -19.8748 -0 0 15.62627 -8.45888 9.145288 4.378901 8.032459 -21.54995 -0.4862133 -92.10432 22.33028 19.1908 0 0 -17.56189 12.10063 15.96306 -0.3136823
1.74703 100.9417 12.99434 -0.7625083 2.949243 0.1307291 6.513738 -29.68991 6.948873 -0 23.48837 -0 -7.239054 -7.376182 -1.807331 -5.70298 12.08391 -18.52592 -0 7.009386 -0 5.469676 -22.06673 21.52224 -2.590375 -2.433287 4.14035 2.921549 8.960137 -8.509845 1.40883 19.93888 7.312135 4.103192 -26.11893 9.289028 5.658467 -18.57231 11.05787 86.23212 34.93241 -20.42429 -0 0 15.14081 -9.01367 9.45433 4.442009 8.471595 -21.99271 -0.3155112 -91.91891 22.25708 18.66178 0 0 -18.12719 11.52126 15.97142 0.09416121
